<svg width="187" height="221" viewBox="0 0 187 221" fill="none" xmlns="http://www.w3.org/2000/svg">
<path fill-rule="evenodd" clip-rule="evenodd" d="M183.936 204.633C183.267 201.804 177.516 200.612 160.236 199.62C144.111 198.677 125.339 195.947 92.5421 197.436C67.4727 198.577 36.2577 203.144 36.2577 205.675C36.2577 207.512 37.4747 207.562 49.0967 205.924C59.8364 204.435 65.3431 204.087 72.0668 203.69C45.1112 207.562 39.361 210.093 25.0008 212.525C15.9953 214.064 21.2587 218.482 24.5445 218.035C24.5749 218.035 66.4688 212.476 70.4239 212.773C70.789 212.823 66.8034 213.717 61.5401 214.759C46.8453 217.737 49.6747 222.701 60.6882 220.417C97.7446 212.724 132.611 210.341 159.475 213.667C167.963 214.709 168.906 214.709 168.906 213.419C168.906 211.135 166.594 209.398 162.974 209.051C157.315 208.455 135.531 206.767 125.674 206.271C124.913 206.221 125.278 205.278 125.948 205.179C129.964 204.534 161.848 205.03 174.383 205.725C183.601 206.221 184.271 206.172 183.936 204.633Z" fill="#EDCD8E"/>
<path opacity="0.55" fill-rule="evenodd" clip-rule="evenodd" d="M96.5909 23.7305C119.527 25.2837 141.648 28.2826 142.568 49.9224C142.568 98.0693 187.045 89.7609 187 115.797C186.955 141.802 170.067 164.076 150.778 181.603C132.483 198.228 109.375 210.967 84.709 208.749C61.563 206.667 43.9263 188.916 29.5833 170.703C17.1765 154.948 14.6655 135.571 11.5087 115.797C7.37203 89.8851 -10.4689 58.0867 8.73856 40.1304C28.0208 22.1042 70.2064 21.9437 96.5909 23.7305Z" fill="url(#paint0_diamond_140_89)"/>
<path d="M80.6035 60C80.1768 60 79.8142 59.8507 79.5155 59.552C79.2168 59.2533 79.0675 58.8907 79.0675 58.464V55.2C79.0675 54.816 79.1528 54.368 79.3235 53.856C79.5368 53.3013 79.9848 52.7467 80.6675 52.192L90.7795 42.144C93.5955 39.9253 95.8568 38.048 97.5635 36.512C99.3128 34.9333 100.572 33.504 101.34 32.224C102.15 30.9013 102.556 29.6 102.556 28.32C102.556 26.4 102.022 24.8427 100.956 23.648C99.9315 22.4533 98.2888 21.856 96.0275 21.856C94.5342 21.856 93.2755 22.176 92.2515 22.816C91.2275 23.4133 90.4168 24.224 89.8195 25.248C89.2648 26.272 88.8808 27.4027 88.6675 28.64C88.5822 29.1947 88.3475 29.5787 87.9635 29.792C87.5795 30.0053 87.1955 30.112 86.8115 30.112H81.1155C80.7315 30.112 80.4115 29.984 80.1555 29.728C79.8995 29.472 79.7715 29.1733 79.7715 28.832C79.8142 26.9973 80.1982 25.2267 80.9235 23.52C81.6488 21.7707 82.6942 20.2347 84.0595 18.912C85.4675 17.5467 87.1742 16.4587 89.1795 15.648C91.1848 14.8373 93.4462 14.432 95.9635 14.432C99.5048 14.432 102.428 15.0293 104.732 16.224C107.078 17.4187 108.828 19.04 109.979 21.088C111.174 23.136 111.772 25.44 111.772 28C111.772 30.0053 111.388 31.8613 110.62 33.568C109.852 35.232 108.742 36.8533 107.292 38.432C105.841 39.968 104.092 41.5467 102.044 43.168L92.9555 52.384H111.196C111.665 52.384 112.028 52.5333 112.284 52.832C112.582 53.088 112.732 53.4507 112.732 53.92V58.464C112.732 58.8907 112.582 59.2533 112.284 59.552C112.028 59.8507 111.665 60 111.196 60H80.6035Z" fill="#EBB88B" fill-opacity="0.88"/>
<defs>
<radialGradient id="paint0_diamond_140_89" cx="0" cy="0" r="1" gradientUnits="userSpaceOnUse" gradientTransform="translate(93.5 116) rotate(90) scale(93 93.5)">
<stop stop-color="#EDCD8E"/>
<stop offset="1" stop-color="#F5C69B"/>
</radialGradient>
</defs>
</svg>
