<svg width="190" height="230" viewBox="0 0 190 230" fill="none" xmlns="http://www.w3.org/2000/svg">
<path fill-rule="evenodd" clip-rule="evenodd" d="M163.936 212.636C163.266 209.806 157.516 208.615 140.235 207.622C124.111 206.679 105.339 203.949 72.5419 205.438C47.4725 206.58 16.2575 211.147 16.2575 213.678C16.2575 215.515 17.4745 215.564 29.0965 213.926C39.8361 212.437 45.3429 212.09 52.0666 211.693C25.1109 215.564 19.3607 218.096 5.00059 220.528C-4.00491 222.067 1.25844 226.484 4.54423 226.038C4.57465 226.038 46.4685 220.478 50.4236 220.776C50.7887 220.826 46.8032 221.719 41.5398 222.761C26.8451 225.74 29.6745 230.703 40.688 228.42C77.7444 220.726 112.61 218.344 139.475 221.669C147.963 222.712 148.906 222.712 148.906 221.421C148.906 219.138 146.594 217.401 142.973 217.053C137.315 216.458 115.531 214.77 105.674 214.274C104.913 214.224 105.278 213.281 105.947 213.182C109.963 212.536 141.848 213.033 154.382 213.727C163.601 214.224 164.27 214.174 163.936 212.636Z" fill="#FFD1D9"/>
<path fill-rule="evenodd" clip-rule="evenodd" d="M82.2242 18.1854C105.147 19.7426 153.449 36.825 163.224 58.6855C186.724 99.6854 189.269 92.8978 189.224 119C189.179 145.071 172.726 163.086 153.449 180.657C135.163 197.324 110.649 210.095 85.9968 207.871C62.8638 205.784 49.2993 226.13 34.9644 207.871C22.5645 192.077 6.11938 138.824 2.96437 119C-1.16998 93.0223 23.2676 90.1591 42.4644 72.1575C61.7358 54.0857 55.8544 16.3941 82.2242 18.1854Z" fill="url(#paint0_linear_141_95)" fill-opacity="0.45"/>
<path d="M93.2475 60.6424C90.2609 60.6424 87.6795 60.2798 85.5035 59.5544C83.3275 58.8291 81.5142 57.8904 80.0635 56.7384C78.6555 55.5438 77.5889 54.2638 76.8635 52.8984C76.1382 51.4904 75.7542 50.1038 75.7115 48.7384C75.7115 48.3544 75.8395 48.0558 76.0955 47.8424C76.3942 47.5864 76.7355 47.4584 77.1195 47.4584H82.8795C83.3062 47.4584 83.6689 47.5438 83.9675 47.7144C84.2662 47.8851 84.5222 48.2264 84.7355 48.7384C85.1195 49.8904 85.7382 50.8078 86.5915 51.4904C87.4875 52.1731 88.5115 52.6638 89.6635 52.9624C90.8155 53.2184 92.0315 53.3464 93.3115 53.3464C95.8715 53.3464 97.8982 52.7491 99.3915 51.5544C100.928 50.3171 101.696 48.5678 101.696 46.3064C101.696 44.0451 100.992 42.4238 99.5835 41.4424C98.1755 40.4184 96.2129 39.9064 93.6955 39.9064H87.1035C86.6342 39.9064 86.2502 39.7784 85.9515 39.5224C85.6529 39.2238 85.5035 38.8398 85.5035 38.3704V35.6824C85.5035 35.2558 85.5889 34.8931 85.7595 34.5944C85.9729 34.2531 86.1862 33.9758 86.3995 33.7624L97.8555 22.5624H79.5515C79.0822 22.5624 78.6982 22.4131 78.3995 22.1144C78.1435 21.8158 78.0155 21.4531 78.0155 21.0264V16.8024C78.0155 16.3331 78.1435 15.9491 78.3995 15.6504C78.6982 15.3518 79.0822 15.2024 79.5515 15.2024H107.008C107.477 15.2024 107.861 15.3518 108.16 15.6504C108.458 15.9491 108.608 16.3331 108.608 16.8024V20.6424C108.608 21.0264 108.522 21.3678 108.352 21.6664C108.181 21.9651 107.989 22.2211 107.776 22.4344L96.7035 33.8264L97.4715 33.8904C100.074 34.1038 102.378 34.7011 104.384 35.6824C106.432 36.6211 108.01 38.0078 109.12 39.8424C110.272 41.6771 110.848 43.9811 110.848 46.7544C110.848 49.6558 110.08 52.1518 108.544 54.2424C107.05 56.2904 104.981 57.8691 102.336 58.9784C99.6902 60.0878 96.6609 60.6424 93.2475 60.6424Z" fill="#EFB6AA"/>
<defs>
<linearGradient id="paint0_linear_141_95" x1="2.50199" y1="208.789" x2="217.35" y2="156.943" gradientUnits="userSpaceOnUse">
<stop stop-color="#FFC7D1"/>
<stop offset="0.396279" stop-color="#F8D3CB"/>
<stop offset="1" stop-color="#FFD5DC"/>
</linearGradient>
</defs>
</svg>
