<svg width="214" height="229" viewBox="0 0 214 229" fill="none" xmlns="http://www.w3.org/2000/svg">
<path fill-rule="evenodd" clip-rule="evenodd" d="M209.936 212.633C209.271 209.804 203.556 208.612 186.38 207.62C170.354 206.677 151.697 203.947 119.1 205.436C94.1833 206.577 63.1586 211.144 63.1586 213.675C63.1586 215.512 64.3682 215.562 75.9193 213.924C86.5935 212.435 92.0667 212.087 98.7494 211.69C71.9581 215.562 66.2429 218.093 51.9704 220.525C43.0198 222.064 48.251 226.482 51.5168 226.035C51.547 226.035 93.1854 220.476 97.1164 220.773C97.4793 220.823 93.5181 221.717 88.2868 222.759C73.6816 225.737 76.4938 230.701 87.4401 228.417C124.271 220.724 158.924 218.341 185.624 221.667C194.061 222.709 194.998 222.709 194.998 221.419C194.998 219.135 192.7 217.398 189.102 217.051C183.478 216.455 161.827 214.767 152.03 214.271C151.274 214.221 151.636 213.278 152.302 213.179C156.293 212.534 187.983 213.03 200.441 213.725C209.604 214.221 210.269 214.172 209.936 212.633Z" fill="#E49287"/>
<path fill-rule="evenodd" clip-rule="evenodd" d="M177.275 93.537C180.793 116.242 197.783 137.287 189.488 158.706C180.055 183.062 158.285 202.655 132.811 208.347C107.368 214.032 81.875 202.472 60.4973 187.526C40.2196 173.35 22.686 153.625 19.4389 129.087C16.3918 106.061 29.8796 84.9548 44.5425 66.9581C57.2261 51.3909 75.6257 44.6741 94.272 37.2402C118.706 27.4989 145.888 3.09893 167.668 17.871C189.532 32.7006 173.229 67.4181 177.275 93.537Z" fill="url(#paint0_linear_140_93)"/>
<path d="M123.405 60C122.978 60 122.616 59.8507 122.317 59.552C122.018 59.2533 121.869 58.8907 121.869 58.464V50.272H101.581C101.112 50.272 100.728 50.1227 100.429 49.824C100.173 49.5253 100.045 49.1627 100.045 48.736V44.384C100.045 44.128 100.088 43.8293 100.173 43.488C100.301 43.104 100.493 42.7627 100.749 42.464L119.629 16.288C120.184 15.5627 120.973 15.2 121.997 15.2H128.973C129.4 15.2 129.762 15.3493 130.061 15.648C130.36 15.9467 130.509 16.3093 130.509 16.736V42.72H136.205C136.717 42.72 137.101 42.8693 137.357 43.168C137.656 43.424 137.805 43.7867 137.805 44.256V48.736C137.805 49.1627 137.656 49.5253 137.357 49.824C137.058 50.1227 136.696 50.272 136.269 50.272H130.509V58.464C130.509 58.8907 130.36 59.2533 130.061 59.552C129.762 59.8507 129.4 60 128.973 60H123.405ZM108.941 42.976H122.061V24.48L108.941 42.976Z" fill="#E49287"/>
<defs>
<linearGradient id="paint0_linear_140_93" x1="6.46598" y1="45.2268" x2="109.066" y2="239.45" gradientUnits="userSpaceOnUse">
<stop stop-color="#FFC7D1"/>
<stop offset="0.396279" stop-color="#F8D3CB"/>
<stop offset="1" stop-color="#FFD5DC"/>
</linearGradient>
</defs>
</svg>
