<svg width="187" height="221" viewBox="0 0 187 221" fill="none" xmlns="http://www.w3.org/2000/svg">
<path fill-rule="evenodd" clip-rule="evenodd" d="M170.936 204.633C170.271 201.804 164.556 200.612 147.38 199.62C131.354 198.677 112.697 195.947 80.0998 197.436C55.1833 198.577 24.1586 203.144 24.1586 205.675C24.1586 207.512 25.3682 207.562 36.9193 205.924C47.5935 204.435 53.0666 204.087 59.7493 203.69C32.958 207.562 27.2429 210.093 12.9703 212.525C4.01975 214.064 9.25101 218.482 12.5168 218.035C12.547 218.035 54.1854 212.476 58.1164 212.773C58.4793 212.823 54.518 213.717 49.2868 214.759C34.6816 217.737 37.4938 222.701 48.4401 220.417C85.2706 212.724 119.924 210.341 146.624 213.667C155.061 214.709 155.998 214.709 155.998 213.419C155.998 211.135 153.7 209.398 150.102 209.051C144.478 208.455 122.827 206.767 113.03 206.271C112.274 206.221 112.636 205.278 113.302 205.179C117.293 204.534 148.983 205.03 161.441 205.725C170.604 206.221 171.269 206.172 170.936 204.633Z" fill="#83A0EB"/>
<path opacity="0.55" fill-rule="evenodd" clip-rule="evenodd" d="M84.7089 43.0339C107.645 44.5903 131.923 32.6456 151.006 45.4385C172.706 59.9856 187.045 85.5165 187 111.606C186.955 137.665 170.067 159.984 150.778 177.547C132.483 194.206 109.375 206.971 84.7089 204.748C61.563 202.662 43.9263 184.875 29.5833 166.624C17.1765 150.838 14.6655 131.421 11.5087 111.606C7.37203 85.641 -10.4689 53.7774 8.73855 35.7842C28.0208 17.721 58.3244 41.2435 84.7089 43.0339Z" fill="url(#paint0_diamond_140_88)"/>
<path d="M89.4155 60C88.9462 60 88.5622 59.8507 88.2635 59.552C88.0075 59.2533 87.8795 58.8907 87.8795 58.464V25.312L78.1515 32.8C77.7675 33.056 77.3835 33.1627 76.9995 33.12C76.6155 33.0347 76.2742 32.8 75.9755 32.416L73.2875 28.96C73.0315 28.576 72.9248 28.1707 72.9675 27.744C73.0528 27.3173 73.2875 26.976 73.6715 26.72L88.0075 15.648C88.2635 15.4347 88.5195 15.3067 88.7755 15.264C89.0315 15.2213 89.3088 15.2 89.6075 15.2H95.2395C95.6662 15.2 96.0288 15.3493 96.3275 15.648C96.6262 15.9467 96.7755 16.3093 96.7755 16.736V58.464C96.7755 58.8907 96.6262 59.2533 96.3275 59.552C96.0288 59.8507 95.6662 60 95.2395 60H89.4155Z" fill="#B0C1EE"/>
<defs>
<radialGradient id="paint0_diamond_140_88" cx="0" cy="0" r="1" gradientUnits="userSpaceOnUse" gradientTransform="translate(30.4849 130.634) rotate(-23.5047) scale(165.154 515.612)">
<stop stop-color="#CDD6FF"/>
<stop offset="0.48061" stop-color="#ABB9FC"/>
<stop offset="1" stop-color="#B0C1EE"/>
</radialGradient>
</defs>
</svg>
