<svg width="50" height="50" viewBox="0 0 50 50" fill="none" xmlns="http://www.w3.org/2000/svg">
<path d="M33.3332 11.4583C33.3332 10.8402 33.5165 10.236 33.8598 9.7221C34.2032 9.20819 34.6913 8.80765 35.2623 8.57113C35.8333 8.33461 36.4617 8.27272 37.0678 8.3933C37.674 8.51388 38.2309 8.81151 38.6679 9.24854C39.1049 9.68558 39.4026 10.2424 39.5231 10.8486C39.6437 11.4548 39.5818 12.0831 39.3453 12.6541C39.1088 13.2252 38.7082 13.7132 38.1943 14.0566C37.6804 14.4 37.0763 14.5833 36.4582 14.5833" stroke="black" stroke-linecap="round" stroke-linejoin="round"/>
<path d="M36.4583 17.7083C36.5613 17.7083 36.662 17.7388 36.7477 17.796C36.8333 17.8533 36.9001 17.9346 36.9395 18.0298C36.9789 18.1249 36.9893 18.2297 36.9692 18.3307C36.9491 18.4317 36.8995 18.5245 36.8266 18.5974C36.7538 18.6702 36.661 18.7198 36.5599 18.7399C36.4589 18.76 36.3542 18.7497 36.259 18.7103C36.1638 18.6709 36.0825 18.6041 36.0253 18.5184C35.968 18.4328 35.9375 18.3321 35.9375 18.2291C35.9375 18.091 35.9924 17.9585 36.09 17.8608C36.1877 17.7631 36.3202 17.7083 36.4583 17.7083Z" stroke="black" stroke-linecap="round" stroke-linejoin="round"/>
<path d="M36.3187 1.04175C34.6735 1.04726 33.0458 1.38001 31.5304 2.02064C30.0149 2.66127 28.6421 3.59697 27.4918 4.77326C26.3415 5.94955 25.4367 7.34294 24.8301 8.87228C24.2234 10.4016 23.9271 12.0364 23.9583 13.6813C23.8646 16.0076 24.4285 18.3131 25.5854 20.3334L21.875 28.1251L29.6687 24.4126C31.3302 25.4425 33.208 26.0729 35.1543 26.254C37.1007 26.4352 39.0626 26.1622 40.8855 25.4566C42.7085 24.7509 44.3429 23.6319 45.66 22.1875C46.9771 20.7431 47.9411 19.0127 48.4761 17.1326C49.0111 15.2524 49.1025 13.2738 48.7431 11.3523C48.3837 9.43085 47.5833 7.619 46.4049 6.05934C45.2265 4.49968 43.7022 3.23475 41.952 2.36408C40.2019 1.49341 38.2735 1.04077 36.3187 1.04175V1.04175Z" stroke="black" stroke-linecap="round" stroke-linejoin="round"/>
<path d="M34.375 30.2104V48.9604" stroke="black" stroke-linecap="round" stroke-linejoin="round"/>
<path d="M1.04181 48.9584V11.4584C1.04181 10.3533 1.4808 9.29354 2.2622 8.51214C3.0436 7.73073 4.10341 7.29175 5.20848 7.29175H20.8335" stroke="black" stroke-linecap="round" stroke-linejoin="round"/>
<path d="M19.7918 15.6272H1.04181" stroke="black" stroke-linecap="round" stroke-linejoin="round"/>
<path d="M16.6668 39.5854C19.2556 39.5854 21.3543 37.4868 21.3543 34.8979C21.3543 32.3091 19.2556 30.2104 16.6668 30.2104C14.078 30.2104 11.9793 32.3091 11.9793 34.8979C11.9793 37.4868 14.078 39.5854 16.6668 39.5854Z" stroke="black" stroke-linecap="round" stroke-linejoin="round"/>
<path d="M26.0418 48.9582C25.5106 46.875 24.3006 45.0281 22.603 43.709C20.9053 42.3899 18.8167 41.6738 16.6668 41.6738C14.5169 41.6738 12.4283 42.3899 10.7306 43.709C9.03297 45.0281 7.82303 46.875 7.29181 48.9582" stroke="black" stroke-linecap="round" stroke-linejoin="round"/>
<path d="M14.5832 11.4604H19.7915" stroke="black" stroke-linecap="round" stroke-linejoin="round"/>
</svg>
