<svg width="50" height="50" viewBox="0 0 50 50" fill="none" xmlns="http://www.w3.org/2000/svg">
<path d="M25 45.8333V48.9583" stroke="black" stroke-linecap="round" stroke-linejoin="round"/>
<path d="M31.25 36.0105V41.6668C31.25 44.6376 28.75 45.8334 25 45.8334C21.25 45.8334 18.75 44.6376 18.75 41.6668V36.0105" stroke="black" stroke-linecap="round" stroke-linejoin="round"/>
<path d="M25.0002 35.8272V27.0834L20.8336 22.9167" stroke="black" stroke-linecap="round" stroke-linejoin="round"/>
<path d="M30.2085 36.4584C32.7037 35.4692 34.838 33.7429 36.3269 31.5096C37.8157 29.2763 38.5884 26.6421 38.5418 23.9584C38.4782 20.3868 37.031 16.9793 34.5051 14.4534C31.9792 11.9275 28.5717 10.4804 25.0001 10.4167C21.4286 10.4804 18.021 11.9275 15.4952 14.4534C12.9693 16.9793 11.5221 20.3868 11.4585 23.9584C11.4119 26.6421 12.1845 29.2763 13.6734 31.5096C15.1623 33.7429 17.2966 35.4692 19.7918 36.4584H30.2085Z" stroke="black" stroke-linecap="round" stroke-linejoin="round"/>
<path d="M18.75 40.625H31.25" stroke="black" stroke-linecap="round" stroke-linejoin="round"/>
<path d="M25 1.04175V5.20841" stroke="black" stroke-linecap="round" stroke-linejoin="round"/>
<path d="M2.08356 21.875H6.85647" stroke="black" stroke-linecap="round" stroke-linejoin="round"/>
<path d="M7.29144 6.25L11.4581 10.4167" stroke="black" stroke-linecap="round" stroke-linejoin="round"/>
<path d="M47.9168 21.875H43.1439" stroke="black" stroke-linecap="round" stroke-linejoin="round"/>
<path d="M42.7081 6.25L38.5414 10.4167" stroke="black" stroke-linecap="round" stroke-linejoin="round"/>
<path d="M25 27.0834L29.1667 22.9167" stroke="black" stroke-linecap="round" stroke-linejoin="round"/>
</svg>
