<svg width="62" height="62" viewBox="0 0 62 62" fill="none" xmlns="http://www.w3.org/2000/svg">
<rect width="62" height="62" rx="20" fill="url(#paint0_linear_185_97)"/>
<path d="M25.5464 16.9234L25.5464 16.9234C25.7154 16.8634 25.8815 16.8808 26.0165 16.9658C26.1449 17.0467 26.2244 17.1754 26.2601 17.3049C26.3302 17.5591 26.2463 17.9095 25.897 18.0377M25.5464 16.9234L25.8189 17.8254M25.5464 16.9234L25.5441 16.9242C22.7795 17.9382 20.3439 19.6875 18.5 21.9836C16.6562 24.2796 15.4739 27.0353 15.0806 29.9537L15.0806 29.9537L15.0804 29.9557C14.7223 32.8032 15.1416 35.6945 16.2939 38.3229C17.4462 40.9514 19.2884 43.2189 21.6252 44.8849C24.0357 46.6038 26.9059 47.5611 29.8656 47.6334C32.8253 47.7057 35.7388 46.8897 38.2303 45.2906C40.7219 43.6916 42.6773 41.3827 43.8443 38.6619C45.0108 35.9423 45.3362 32.9358 44.7787 30.0298M25.5464 16.9234L15.3049 29.9839C14.9519 32.7909 15.3652 35.6411 16.5011 38.2321C17.637 40.8231 19.4531 43.0584 21.7566 44.7007C24.1303 46.3933 26.9566 47.336 29.8711 47.4072C32.7856 47.4784 35.6546 46.6749 38.1081 45.1002C40.5616 43.5255 42.4871 41.252 43.6364 38.5727C44.7856 35.8934 45.1057 32.9313 44.5557 30.0683M25.897 18.0377C25.8969 18.0378 25.8968 18.0378 25.8967 18.0378L25.8189 17.8254M25.897 18.0377C25.8971 18.0377 25.8971 18.0377 25.8972 18.0376L25.8189 17.8254M25.897 18.0377C22.9683 19.1189 20.4505 21.088 18.6953 23.6698C16.9403 26.2514 16.0356 29.3167 16.1073 32.4375M25.8189 17.8254C22.8458 18.9229 20.2899 20.9217 18.5082 23.5426C16.7265 26.1635 15.8081 29.2755 15.8812 32.4438M16.1073 32.4375C16.1073 32.4372 16.1073 32.4368 16.1073 32.4365L15.8812 32.4438M16.1073 32.4375C16.1924 35.071 16.987 37.6326 18.4072 39.8519C19.8274 42.0711 21.8205 43.8656 24.176 45.046M16.1073 32.4375C16.1074 32.4378 16.1074 32.4382 16.1074 32.4385L15.8812 32.4438M15.8812 32.4438L24.176 45.046M24.176 45.046C24.1756 45.0458 24.1753 45.0456 24.1749 45.0454L24.0759 45.2489L24.1772 45.0466C24.1768 45.0464 24.1764 45.0462 24.176 45.046ZM24.176 45.046C26.6102 46.2304 29.3386 46.6744 32.0228 46.3229C34.705 45.9717 37.2253 44.8415 39.2717 43.0724M24.176 45.046L39.4252 43.2389M39.2717 43.0724C39.27 43.0741 39.2683 43.0758 39.2666 43.0775L39.4252 43.2389M39.2717 43.0724C39.2735 43.0709 39.2753 43.0693 39.2771 43.0678L39.4252 43.2389M39.2717 43.0724C41.2391 41.1377 42.6379 38.7003 43.316 36.0256C43.9946 33.3485 43.9251 30.5365 43.115 27.8962C42.305 25.256 40.7854 22.8888 38.7221 21.053C36.6603 19.2185 34.1346 17.985 31.4202 17.4867M39.4252 43.2389C41.4248 41.2743 42.8465 38.7984 43.5353 36.0812C44.2242 33.3639 44.1536 30.5097 43.3314 27.8299C42.5091 25.15 40.9668 22.7473 38.8725 20.884C36.7783 19.0207 34.2126 17.7682 31.4553 17.2631C31.0055 17.2069 31.2023 16.5884 31.6381 16.5884C38.5256 17.5161 43.5296 23.3775 44.5557 30.0683M31.4202 17.4867C31.4226 17.4871 31.4249 17.4874 31.4273 17.4877L31.4553 17.2631L31.4146 17.4857C31.4165 17.486 31.4183 17.4864 31.4202 17.4867ZM31.4202 17.4867C31.255 17.4644 31.1158 17.384 31.0368 17.247C30.9606 17.1148 30.961 16.9652 30.9975 16.841C31.0691 16.597 31.3058 16.3622 31.6381 16.3622C31.6482 16.3622 31.6583 16.3628 31.6683 16.3642C38.6709 17.3074 43.7387 23.2597 44.7787 30.0298M44.7787 30.0298C44.7784 30.0284 44.7781 30.027 44.7779 30.0256L44.5557 30.0683M44.7787 30.0298C44.7789 30.0312 44.7791 30.0326 44.7793 30.034L44.5557 30.0683M26.8017 26.3015C26.8017 26.2965 26.8019 26.2914 26.8022 26.2864L26.9986 23.3553C27.0008 23.2052 27.0613 23.0617 27.1677 22.9553C27.2236 22.8994 27.2897 22.8562 27.3617 22.8274C27.3794 22.803 27.3992 22.7798 27.4208 22.7582C27.5291 22.6499 27.6761 22.589 27.8293 22.589H30.6868C30.7637 22.5524 30.8485 22.5328 30.9353 22.5328C31.0885 22.5328 31.2354 22.5937 31.3438 22.702C31.4521 22.8104 31.513 22.9573 31.513 23.1105V23.1207L31.5127 23.1207L31.3864 25.9275C31.3849 26.0786 31.3243 26.2232 31.2173 26.3302C31.1212 26.4263 30.9947 26.4851 30.8604 26.4971C30.8402 26.5263 30.8174 26.5537 30.792 26.5791C30.6865 26.6846 30.5451 26.7464 30.396 26.752M26.8017 26.3015L30.3874 26.5259M26.8017 26.3015C26.8017 26.4547 26.8625 26.6017 26.9709 26.71C27.0792 26.8184 27.2262 26.8792 27.3794 26.8792V26.8794L27.3879 26.879C27.4279 26.8775 27.4673 26.872 27.5056 26.8627M26.8017 26.3015L27.4715 26.6375M30.396 26.752L30.3874 26.5259M30.396 26.752L30.3961 26.752L30.3874 26.5259M30.396 26.752L27.5056 26.8627M30.3874 26.5259L27.4715 26.6375M27.5056 26.8627C27.5162 26.8601 27.5266 26.8572 27.537 26.8541L27.4715 26.6375M27.5056 26.8627L27.4801 26.8636L27.4715 26.6375M28.5023 40.1464C28.5023 40.1378 28.5028 40.1292 28.5037 40.1207C28.8787 36.8483 29.0453 33.5556 29.0026 30.2624L26.5376 30.0973C26.3899 30.0908 26.2499 30.0292 26.1452 29.9246C26.0397 29.8191 25.978 29.6776 25.9724 29.5285L25.972 29.52H25.9722C25.9722 29.3668 26.033 29.2198 26.1414 29.1115C26.2497 29.0031 26.3967 28.9423 26.5499 28.9423C26.5549 28.9423 26.56 28.9424 26.565 28.9428L29.4961 29.1391C29.571 29.1402 29.6444 29.1559 29.7122 29.1845C29.8129 29.2097 29.9058 29.2618 29.9804 29.3364C30.0882 29.4443 30.149 29.5903 30.1496 29.7427C30.1496 29.7434 30.1496 29.7442 30.1496 29.7449H29.9233C29.9877 33.0386 29.8433 36.3329 29.4911 39.608L28.5023 40.1464ZM28.5023 40.1464C28.5023 40.2272 28.5166 40.3039 28.5452 40.374C28.5477 40.3849 28.5505 40.3957 28.5537 40.4065C28.5966 40.5536 28.6962 40.6776 28.8305 40.7512C28.9597 40.8221 29.1108 40.8408 29.253 40.804L32.3037 40.3562C32.314 40.3546 32.3242 40.3524 32.3342 40.3495C32.4071 40.3283 32.475 40.2929 32.5341 40.2454C32.5933 40.1979 32.6425 40.1392 32.679 40.0727C32.7155 40.0061 32.7385 39.9331 32.7467 39.8577L32.5218 39.8331L32.7467 39.8577C32.7549 39.7823 32.7483 39.706 32.727 39.6332C32.7058 39.5604 32.6705 39.4925 32.6229 39.4333L32.4661 39.5592L32.6229 39.4333C32.5754 39.3741 32.5168 39.3249 32.4502 39.2884C32.3837 39.2519 32.3107 39.2289 32.2352 39.2207C32.1656 39.2131 32.0953 39.2182 32.0277 39.2357L29.7223 39.5741L28.5023 40.1464ZM30.3289 23.7444L30.2453 25.6021L27.9654 25.6894L28.1236 23.7444H30.3289ZM28.6583 17.6298C28.8116 17.6298 28.9585 17.5689 29.0668 17.4606C29.1751 17.3523 29.236 17.2053 29.236 17.0521C29.236 16.8988 29.1751 16.7519 29.0668 16.6436C28.9585 16.5353 28.8116 16.4744 28.6583 16.4744C28.5051 16.4744 28.3582 16.5353 28.2498 16.6436C28.1415 16.752 28.0807 16.8989 28.0807 17.0521C28.0807 17.2053 28.1415 17.3522 28.2498 17.4606C28.3582 17.5689 28.5051 17.6298 28.6583 17.6298Z" fill="#272727" stroke="#272727" stroke-width="0.452541" stroke-linejoin="round"/>
<defs>
<linearGradient id="paint0_linear_185_97" x1="6.88251e-07" y1="59.8793" x2="70.8791" y2="41.7953" gradientUnits="userSpaceOnUse">
<stop stop-color="#FD9397"/>
<stop offset="0.513542" stop-color="#FFE2D9"/>
<stop offset="1" stop-color="#FFB8BB"/>
</linearGradient>
</defs>
</svg>
