<svg width="52" height="53" viewBox="0 0 52 53" fill="none" xmlns="http://www.w3.org/2000/svg">
<path d="M39.9959 25.2892C39.9982 25.1837 39.9439 25.0831 39.8085 25.029C30.494 20.9808 21.3388 16.5719 12.3428 11.8022C12.1732 11.7113 12.0088 11.7718 11.9093 11.887C11.8844 11.9105 11.8628 11.9376 11.8453 11.9677C11.7979 12.0494 11.7848 12.1466 11.809 12.2379C12.8944 16.5956 13.5488 21.0494 13.7628 25.535C13.7628 25.7368 13.9071 25.8481 14.065 25.8688C14.1102 25.8942 14.164 25.9106 14.2266 25.9145C20.9837 26.35 27.777 26.5358 34.6063 26.472L14.4936 28.8382C14.2464 28.8382 14.1349 29.0824 14.1668 29.2835C14.1438 29.3388 14.1338 29.4016 14.1425 29.4707C14.7034 33.191 14.8964 36.9575 14.7187 40.7156C14.7187 40.8938 14.8268 41.0014 14.9583 41.0384C15.0523 41.1917 15.2439 41.2999 15.4212 41.2077C24.111 37.4703 32.2024 32.4757 39.4363 26.3854L39.6963 26.3784C39.9758 26.3784 40.0816 26.1016 40.0138 25.8954L40.0897 25.8303C40.2987 25.6475 40.1895 25.3892 39.9959 25.2892ZM39.3206 25.5744C30.2611 21.6537 21.3778 17.3848 12.6709 12.7678C13.6414 16.8575 14.2371 21.0275 14.4506 25.226C22.6954 25.7471 30.9402 25.9016 39.185 25.6892L39.3206 25.5744ZM14.851 29.499C15.3883 33.122 15.5824 36.7877 15.4307 40.4472C23.4966 36.9396 31.0412 32.3447 37.8553 26.7926L14.851 29.499Z" fill="#272727"/>
<path d="M39.9959 25.2892C39.9982 25.1837 39.9439 25.0831 39.8085 25.029C30.494 20.9808 21.3388 16.5719 12.3428 11.8022C12.1732 11.7113 12.0088 11.7718 11.9093 11.887C11.8844 11.9105 11.8628 11.9376 11.8453 11.9677C11.7979 12.0494 11.7848 12.1466 11.809 12.2379C12.8944 16.5956 13.5488 21.0494 13.7628 25.535C13.7628 25.7368 13.9071 25.8481 14.065 25.8688C14.1102 25.8942 14.164 25.9106 14.2266 25.9145C20.9837 26.35 27.777 26.5358 34.6063 26.472L14.4936 28.8382C14.2464 28.8382 14.1349 29.0824 14.1668 29.2835C14.1438 29.3388 14.1338 29.4016 14.1425 29.4707C14.7034 33.191 14.8964 36.9575 14.7187 40.7156C14.7187 40.8938 14.8268 41.0014 14.9583 41.0384C15.0523 41.1917 15.2439 41.2999 15.4212 41.2077C24.111 37.4703 32.2024 32.4757 39.4363 26.3854L39.6963 26.3784C39.9758 26.3784 40.0816 26.1016 40.0138 25.8954L40.0897 25.8303C40.2987 25.6475 40.1895 25.3892 39.9959 25.2892ZM39.3206 25.5744C30.2611 21.6537 21.3778 17.3848 12.6709 12.7678C13.6414 16.8575 14.2371 21.0275 14.4506 25.226C22.6954 25.7471 30.9402 25.9016 39.185 25.6892L39.3206 25.5744ZM14.851 29.499C15.3883 33.122 15.5824 36.7877 15.4307 40.4472C23.4966 36.9396 31.0412 32.3447 37.8553 26.7926L14.851 29.499Z" stroke="#272727"/>
</svg>
