<svg width="291" height="43" viewBox="0 0 291 43" fill="none" xmlns="http://www.w3.org/2000/svg">
<path fill-rule="evenodd" clip-rule="evenodd" d="M290.886 13.6758C289.699 8.60665 279.495 6.47217 248.833 4.69351C220.221 3.00379 186.913 -1.88744 128.718 0.780551C84.2352 2.82601 28.8475 11.0079 28.8475 15.5435C28.8475 18.834 31.007 18.923 51.6289 15.9882C70.6853 13.3202 80.4564 12.6977 92.3869 11.9862C44.557 18.923 34.3539 23.4584 8.87343 27.8161C-7.10585 30.573 2.23339 38.4881 8.06367 37.6877C8.11765 37.6877 82.4537 27.7271 89.4716 28.2607C90.1194 28.3497 83.0476 29.9505 73.7083 31.8181C47.634 37.154 52.6545 46.0472 72.1967 41.9563C137.949 28.1717 199.815 23.9029 247.483 29.8614C262.544 31.729 264.218 31.729 264.218 29.4167C264.218 25.3258 260.115 22.2133 253.691 21.5908C243.65 20.5236 204.998 17.4998 187.507 16.6104C186.157 16.5215 186.805 14.832 187.993 14.6542C195.118 13.498 251.694 14.387 273.935 15.6321C290.292 16.5214 291.48 16.4327 290.886 13.6758Z" fill="#EDCD8E"/>
</svg>
