<svg width="490" height="52" viewBox="0 0 490 52" fill="none" xmlns="http://www.w3.org/2000/svg">
<path fill-rule="evenodd" clip-rule="evenodd" d="M426.74 0.886937C413.681 5.76272 415.358 23.3537 431.086 24.5201C439.887 25.1702 448.181 19.3001 448.181 12.4167C448.181 11.8813 448.601 11.9004 450.387 11.4798C458.924 9.51036 467.417 11.9578 471.608 17.6176C473.174 19.7208 473.174 19.7399 471.343 19.7782C460.689 19.9502 455.196 31.4227 464.593 33.8702C473.306 36.1455 479.968 30.8873 477.961 23.3538C477.696 22.3977 477.696 22.3977 478.689 22.9714C483.895 26.0498 488.681 37.8854 484.667 48.5357C483.255 52.2642 486.586 53.8512 488.505 48.8225C492.806 37.5413 487.402 23.4494 477.718 20.7725C477.101 20.6004 476.836 20.3709 476.505 19.7399C472.556 12.0916 463.38 8.3631 451.402 9.54858C449.726 9.72067 448.314 9.83535 448.27 9.79711C448.248 9.77799 448.049 9.16613 447.873 8.45866C446.064 1.70905 433.799 -1.75172 426.74 0.886937ZM444.365 11.3077C443.637 21.7094 428.814 27.1588 423.652 18.9369C419.351 12.0917 423.233 3.83145 431.681 1.86202C436.181 0.81038 444.917 3.29615 444.365 11.3077ZM473.615 21.6138C474.343 22.2447 474.63 25.0555 474.211 27.0823C473.461 30.6005 470.196 33.0862 466.865 32.7038C460.468 31.9581 464.417 22.5697 471.564 21.5563C473.284 21.3078 473.262 21.3078 473.615 21.6138Z" fill="#FF8FA3"/>
<path fill-rule="evenodd" clip-rule="evenodd" d="M55.1652 0.509387C41.9214 3.61332 33.1444 7.78637 26.3265 14.2012C24.9551 15.5117 22.996 16.8913 21.6246 17.5121C8.14563 23.8234 -6.74401 51 3.28683 51C5.01088 51 5.12858 50.7931 6.97018 45.137C12.9652 26.6859 21.3111 22.8232 21.3894 22.7542L21.6246 25.2719C22.1731 31.8591 29.5002 36.0322 38.5515 34.9286C52.5006 33.2387 50.2674 16.4084 35.9656 15.5462L32.9092 15.3737L34.9076 13.7873C41.7254 8.37268 53.6369 3.40634 61.2776 2.78555C63.9421 2.57863 65 2.19932 65 1.47507C64.9608 0.0610579 59.5145 -0.490769 55.1652 0.509387ZM38.9433 18.5122C45.1342 21.3057 45.1735 30.2727 38.9825 32.342C33.301 34.2388 28.0505 31.2383 27.0317 26.5479C25.6995 20.5125 30.3623 14.6495 38.9433 18.5122Z" fill="#FF8FA3"/>
</svg>
