<svg width="230" height="229" viewBox="0 0 230 229" fill="none" xmlns="http://www.w3.org/2000/svg">
<circle opacity="0.5" r="11.4141" transform="matrix(-0.722648 -0.691217 -0.691217 0.722648 110.937 123.11)" fill="#FFB9C6"/>
<g opacity="0.5">
<mask id="path-2-inside-1_2_552" fill="white">
<path d="M154.627 44.4077C153.544 43.3716 152.267 42.559 150.87 42.0163C149.473 41.4737 147.982 41.2115 146.484 41.2448C144.985 41.2781 143.508 41.6063 142.136 42.2105C140.764 42.8148 139.525 43.6833 138.489 44.7665C137.453 45.8497 136.64 47.1263 136.098 48.5235C135.555 49.9208 135.293 51.4112 135.326 52.9098C135.359 54.4083 135.688 55.8856 136.292 57.2574C136.896 58.6291 137.765 59.8684 138.848 60.9045L146.737 52.6561L154.627 44.4077Z"/>
</mask>
<path d="M154.627 44.4077C153.544 43.3716 152.267 42.559 150.87 42.0163C149.473 41.4737 147.982 41.2115 146.484 41.2448C144.985 41.2781 143.508 41.6063 142.136 42.2105C140.764 42.8148 139.525 43.6833 138.489 44.7665C137.453 45.8497 136.64 47.1263 136.098 48.5235C135.555 49.9208 135.293 51.4112 135.326 52.9098C135.359 54.4083 135.688 55.8856 136.292 57.2574C136.896 58.6291 137.765 59.8684 138.848 60.9045L146.737 52.6561L154.627 44.4077Z" stroke="#F0656B" stroke-width="8" mask="url(#path-2-inside-1_2_552)"/>
</g>
<line opacity="0.5" y1="-2" x2="20.2193" y2="-2" transform="matrix(-0.722648 -0.691217 -0.691217 0.722648 169.454 99.2051)" stroke="#83A0EB" stroke-width="4"/>
<line opacity="0.5" y1="-2" x2="20.2193" y2="-2" transform="matrix(0.691217 -0.722648 -0.722648 -0.691217 155.109 97.2173)" stroke="#83A0EB" stroke-width="4"/>
<circle opacity="0.5" r="11.4141" transform="matrix(-0.722648 -0.691217 -0.691217 0.722648 42.5325 138.009)" fill="#EEBF95"/>
<g opacity="0.5">
<mask id="path-6-inside-2_2_552" fill="white">
<path d="M42.1532 69.051C41.1171 70.1342 40.3045 71.4109 39.7618 72.8081C39.2191 74.2054 38.957 75.6958 38.9903 77.1943C39.0236 78.6929 39.3517 80.1702 39.956 81.5419C40.5602 82.9137 41.4288 84.153 42.5119 85.189C43.5951 86.2251 44.8718 87.0377 46.269 87.5804C47.6663 88.1231 49.1567 88.3853 50.6552 88.3519C52.1538 88.3186 53.6311 87.9905 55.0028 87.3862C56.3746 86.782 57.6139 85.9135 58.6499 84.8303L50.4016 76.9407L42.1532 69.051Z"/>
</mask>
<path d="M42.1532 69.051C41.1171 70.1342 40.3045 71.4109 39.7618 72.8081C39.2191 74.2054 38.957 75.6958 38.9903 77.1943C39.0236 78.6929 39.3517 80.1702 39.956 81.5419C40.5602 82.9137 41.4288 84.153 42.5119 85.189C43.5951 86.2251 44.8718 87.0377 46.269 87.5804C47.6663 88.1231 49.1567 88.3853 50.6552 88.3519C52.1538 88.3186 53.6311 87.9905 55.0028 87.3862C56.3746 86.782 57.6139 85.9135 58.6499 84.8303L50.4016 76.9407L42.1532 69.051Z" stroke="#FAC720" stroke-width="8" mask="url(#path-6-inside-2_2_552)"/>
</g>
<g opacity="0.5">
<line y1="-2" x2="20.2193" y2="-2" transform="matrix(-0.722648 -0.691217 -0.691217 0.722648 183.8 163.47)" stroke="#74ADBF" stroke-width="4"/>
<line y1="-2" x2="20.2193" y2="-2" transform="matrix(0.691217 -0.722648 -0.722648 -0.691217 169.496 163.327)" stroke="#74ADBF" stroke-width="4"/>
</g>
</svg>
