<svg width="257" height="240" viewBox="0 0 257 240" fill="none" xmlns="http://www.w3.org/2000/svg">
<circle opacity="0.5" cx="123.5" cy="133.5" r="17.5" fill="#FFB9C6"/>
<g opacity="0.5">
<mask id="path-2-inside-1_2_562" fill="white">
<path d="M158.5 0C160.798 0 163.074 0.452651 165.197 1.33211C167.32 2.21157 169.249 3.50061 170.874 5.12563C172.499 6.75066 173.788 8.67984 174.668 10.803C175.547 12.9262 176 15.2019 176 17.5C176 19.7981 175.547 22.0738 174.668 24.197C173.788 26.3202 172.499 28.2493 170.874 29.8744C169.249 31.4994 167.32 32.7884 165.197 33.6679C163.074 34.5473 160.798 35 158.5 35L158.5 17.5V0Z"/>
</mask>
<path d="M158.5 0C160.798 0 163.074 0.452651 165.197 1.33211C167.32 2.21157 169.249 3.50061 170.874 5.12563C172.499 6.75066 173.788 8.67984 174.668 10.803C175.547 12.9262 176 15.2019 176 17.5C176 19.7981 175.547 22.0738 174.668 24.197C173.788 26.3202 172.499 28.2493 170.874 29.8744C169.249 31.4994 167.32 32.7884 165.197 33.6679C163.074 34.5473 160.798 35 158.5 35L158.5 17.5V0Z" stroke="#F0656B" stroke-width="8" mask="url(#path-2-inside-1_2_562)"/>
</g>
<line opacity="0.5" x1="84" y1="43" x2="115" y2="43" stroke="#83A0EB" stroke-width="4"/>
<line opacity="0.5" x1="100" y1="58" x2="100" y2="27" stroke="#83A0EB" stroke-width="4"/>
<circle opacity="0.5" cx="183.5" cy="222.5" r="17.5" fill="#EEBF95"/>
<g opacity="0.5">
<mask id="path-6-inside-2_2_562" fill="white">
<path d="M257 146.5C257 148.798 256.547 151.074 255.668 153.197C254.788 155.32 253.499 157.249 251.874 158.874C250.249 160.499 248.32 161.788 246.197 162.668C244.074 163.547 241.798 164 239.5 164C237.202 164 234.926 163.547 232.803 162.668C230.68 161.788 228.751 160.499 227.126 158.874C225.501 157.249 224.212 155.32 223.332 153.197C222.453 151.074 222 148.798 222 146.5L239.5 146.5H257Z"/>
</mask>
<path d="M257 146.5C257 148.798 256.547 151.074 255.668 153.197C254.788 155.32 253.499 157.249 251.874 158.874C250.249 160.499 248.32 161.788 246.197 162.668C244.074 163.547 241.798 164 239.5 164C237.202 164 234.926 163.547 232.803 162.668C230.68 161.788 228.751 160.499 227.126 158.874C225.501 157.249 224.212 155.32 223.332 153.197C222.453 151.074 222 148.798 222 146.5L239.5 146.5H257Z" stroke="#FAC720" stroke-width="8" mask="url(#path-6-inside-2_2_562)"/>
</g>
<g opacity="0.5">
<line y1="99" x2="31" y2="99" stroke="#74ADBF" stroke-width="4"/>
<line x1="14" y1="116" x2="14" y2="85" stroke="#74ADBF" stroke-width="4"/>
</g>
</svg>
