<svg width="50" height="50" viewBox="0 0 50 50" fill="none" xmlns="http://www.w3.org/2000/svg">
<path d="M48.9583 24.9999C48.957 30.8342 46.8254 36.4673 42.9641 40.841C39.1027 45.2148 33.7773 48.0281 27.9881 48.7527C22.1989 49.4772 16.3444 48.0631 11.5242 44.7759C6.70407 41.4888 3.24997 36.5548 1.81076 30.9007C0.371554 25.2467 1.04627 19.2617 3.70818 14.07C6.37008 8.8783 10.836 4.83715 16.267 2.70565C21.6981 0.574144 27.7205 0.498968 33.203 2.49424C38.6856 4.48951 43.251 8.41792 46.0417 13.5416C47.9596 17.0559 48.9627 20.9963 48.9583 24.9999V24.9999Z" stroke="black" stroke-linecap="round" stroke-linejoin="round"/>
<path d="M35.4521 13.5417C33.5062 8.29887 29.8156 3.88517 25.0001 1.04175C20.1845 3.88517 16.4939 8.29887 14.548 13.5417" stroke="black" stroke-linecap="round" stroke-linejoin="round"/>
<path d="M14.5458 36.4583C16.4934 41.7008 20.1845 46.1143 25 48.9583C30.0432 46.3453 33.8587 41.8565 35.625 36.4583" stroke="black" stroke-linecap="round" stroke-linejoin="round"/>
<path d="M6.83734 9.375H43.1623" stroke="black" stroke-linecap="round" stroke-linejoin="round"/>
<path d="M6.83734 40.625H43.1623" stroke="black" stroke-linecap="round" stroke-linejoin="round"/>
<path d="M19.7914 20.8333V23.6353C19.792 25.2253 20.0953 26.8006 20.6852 28.277L21.8748 31.2499L23.9581 23.9583L26.0414 31.2499L27.231 28.277C27.8209 26.8006 28.1243 25.2253 28.1248 23.6353V20.8333" stroke="black" stroke-linecap="round" stroke-linejoin="round"/>
<path d="M32.2914 20.8333V23.6353C32.292 25.2253 32.5953 26.8006 33.1852 28.277L34.3748 31.2499L36.4581 23.9583L38.5414 31.2499L39.731 28.277C40.3209 26.8006 40.6243 25.2253 40.6248 23.6353V20.8333" stroke="black" stroke-linecap="round" stroke-linejoin="round"/>
<path d="M7.29144 20.8333V23.6353C7.29195 25.2253 7.59527 26.8006 8.18519 28.277L9.37478 31.2499L11.4581 23.9583L13.5414 31.2499L14.731 28.277C15.3209 26.8006 15.6243 25.2253 15.6248 23.6353V20.8333" stroke="black" stroke-linecap="round" stroke-linejoin="round"/>
</svg>
