<svg width="40" height="40" viewBox="0 0 40 40" fill="none" xmlns="http://www.w3.org/2000/svg">
<path fill-rule="evenodd" clip-rule="evenodd" d="M30.0422 19.4114C30.0294 19.3205 29.9828 19.2321 29.8917 19.1655C24.7705 15.3323 20.1478 10.8748 16.1307 5.89653C15.9748 5.71083 15.7638 5.76066 15.6411 5.9008C15.5781 5.89762 15.5102 5.91708 15.4418 5.96709C13.5442 7.40854 11.7673 9.00217 10.1285 10.7321C9.97855 10.8958 10.017 11.0957 10.1334 11.2214C10.1197 11.3141 10.1407 11.4144 10.2134 11.5053C12.5144 14.4798 14.9275 17.347 17.4527 20.1068L9.96642 28.8407C9.95958 28.8438 9.95282 28.8471 9.94614 28.8505C9.86903 28.8999 9.81324 28.9764 9.78982 29.0649C9.76639 29.1533 9.77703 29.2474 9.81963 29.3284C11.2613 31.2231 13.0153 32.8583 15.0063 34.1637C15.2563 34.3303 15.494 34.1251 15.5188 33.8933C15.5748 33.8795 15.6302 33.8491 15.6812 33.7982L30.1168 19.9529C30.3056 19.7723 30.2164 19.5246 30.0422 19.4114ZM15.1311 33.3726C15.1467 33.3498 15.166 33.3275 15.1892 33.3062L29.4142 19.6757C24.3542 15.8855 19.7774 11.4901 15.7861 6.58747C13.9922 7.94871 12.3142 9.45622 10.7694 11.0945C13.0452 13.9747 15.4295 16.7961 17.9223 19.5588L18.3798 19.0251C18.6609 18.6877 19.167 19.1797 18.8718 19.5311L10.599 29.1827C11.8849 30.8046 13.4137 32.2179 15.1311 33.3726Z" fill="black"/>
</svg>
